<svg width="123" height="30" viewBox="0 0 123 30" fill="none" xmlns="http://www.w3.org/2000/svg">
<path d="M43.4807 20.5735C46.9084 20.5735 49.0093 18.4727 49.0093 15.9295C49.0093 13.2758 46.6873 12.5018 46.6873 12.5018V12.3912C46.6873 12.3912 48.7881 11.6172 48.7881 9.16254C48.7881 6.75209 46.6873 4.65123 43.4807 4.65123C40.1635 4.65123 37.9521 6.86266 37.9521 9.51637H41.4904C41.4904 8.6318 42.1538 7.96837 43.3701 7.96837C44.5864 7.96837 45.2498 8.6318 45.2498 9.4058C45.2498 10.2904 44.5864 10.9538 43.3701 10.9538H42.2644V13.8287H43.3701C44.697 13.8287 45.471 14.6027 45.471 15.5978C45.471 16.4824 44.697 17.2564 43.3701 17.2564C42.0433 17.2564 41.2693 16.4824 41.2693 15.4872H37.731C37.731 18.3621 39.9424 20.5735 43.4807 20.5735ZM56.5273 20.5735C59.8444 20.5735 62.277 18.1409 62.277 15.1555C62.277 12.1701 59.955 9.84809 56.859 9.84809L60.1761 4.87237H56.1955L51.7727 11.7278C51.3304 12.3912 50.7775 13.3864 50.7775 15.1555C50.7775 18.1409 53.2101 20.5735 56.5273 20.5735ZM56.5273 17.2564C55.2004 17.2564 54.3158 16.3718 54.3158 15.1555C54.3158 13.9392 55.2004 13.0547 56.5273 13.0547C57.8541 13.0547 58.7387 13.9392 58.7387 15.1555C58.7387 16.3718 57.8541 17.2564 56.5273 17.2564ZM70.5664 20.5735C74.2152 20.5735 77.0901 17.6987 77.0901 12.6124C77.0901 7.52609 74.2152 4.65123 70.5664 4.65123C66.9175 4.65123 64.0427 7.52609 64.0427 12.6124C64.0427 17.6987 66.9175 20.5735 70.5664 20.5735ZM70.5664 17.1458C69.0184 17.1458 67.5809 15.7084 67.5809 12.6124C67.5809 9.51637 69.0184 8.07894 70.5664 8.07894C72.1144 8.07894 73.5518 9.51637 73.5518 12.6124C73.5518 15.7084 72.1144 17.1458 70.5664 17.1458ZM82.5012 11.0644C84.2703 11.0644 85.7077 9.62694 85.7077 7.8578C85.7077 6.08866 84.2703 4.65123 82.5012 4.65123C80.732 4.65123 79.2946 6.08866 79.2946 7.8578C79.2946 9.62694 80.732 11.0644 82.5012 11.0644ZM82.5012 9.07409C81.8377 9.07409 81.2849 8.52123 81.2849 7.8578C81.2849 7.19437 81.8377 6.64151 82.5012 6.64151C83.1646 6.64151 83.7175 7.19437 83.7175 7.8578C83.7175 8.52123 83.1646 9.07409 82.5012 9.07409Z" fill="#323232"/>
<path d="M115.638 3.88623L115.758 3.98835L122.076 10.1313C122.532 10.574 122.566 11.2708 122.181 11.7532L122.076 11.8687L115.758 18.0116C115.264 18.4914 114.464 18.4914 113.971 18.0116C113.515 17.5689 113.48 16.8715 113.865 16.3897L113.971 16.2742L119.394 11L113.971 5.72588C113.515 5.28312 113.48 4.58639 113.865 4.10399L113.971 3.98843C114.426 3.54567 115.143 3.51133 115.638 3.88623Z" fill="#323232"/>
<path d="M7.37846 18.1138L7.25891 18.0116L0.941228 11.8687C0.485133 11.426 0.450582 10.7292 0.835495 10.2468L0.941228 10.1313L7.25891 3.98836C7.75302 3.50864 8.55257 3.50864 9.04607 3.98836C9.50216 4.43112 9.53671 5.12852 9.1518 5.61026L9.04607 5.72582L3.62267 11L9.04607 16.2741C9.50216 16.7169 9.53671 17.4136 9.1518 17.896L9.04607 18.0116C8.59066 18.4543 7.87395 18.4887 7.37846 18.1138Z" fill="#323232"/>
</svg>
