<svg width="20" height="20" viewBox="0 0 20 20" fill="none" xmlns="http://www.w3.org/2000/svg">
<path d="M19.6396 17.8724L15.1557 13.4043C16.1868 12.0129 16.7978 10.2847 16.7978 8.40925C16.7978 3.77232 13.0303 -3.03829e-05 8.39932 -3.03829e-05C3.76751 -0.000853648 0 3.77169 0 8.40862C0 13.0455 3.76751 16.8179 8.39848 16.8179C10.2716 16.8179 11.977 16.207 13.3871 15.1737L17.8494 19.6418C18.1019 19.8946 18.4176 20 18.7334 20C19.0491 20 19.3863 19.8732 19.6173 19.6418C20.1238 19.1577 20.1238 18.3574 19.6395 17.8725L19.6396 17.8724ZM2.50456 8.40841C2.50456 5.16298 5.15726 2.50686 8.39852 2.50686C11.6398 2.50686 14.2925 5.16298 14.2925 8.40841C14.2925 11.6538 11.6398 14.31 8.39852 14.31C5.15726 14.31 2.50456 11.6753 2.50456 8.40841Z" fill="#323232"/>
</svg>
